<svg xmlns="http://www.w3.org/2000/svg" width="256" height="256" viewBox="0 0 100 100"><rect width="100" height="100" rx="20" fill="#3ba676"></rect><path fill="#fff" d="M60.62 74.93L37.67 51.17L37.67 77.18Q37.13 77.36 36.23 77.58Q35.33 77.81 34.25 77.81L34.25 77.81Q30.29 77.81 30.29 74.48L30.29 74.48L30.29 22.73Q30.74 22.55 31.69 22.32Q32.63 22.10 33.71 22.10L33.71 22.10Q37.67 22.10 37.67 25.43L37.67 25.43L37.67 47.84L62.42 22.19Q64.76 22.28 65.93 23.36Q67.10 24.44 67.10 25.88L67.10 25.88Q67.10 27.05 66.47 28.04Q65.84 29.03 64.67 30.20L64.67 30.20L45.23 49.28Q53.42 57.29 59.41 63.54Q65.39 69.80 69.71 73.67L69.71 73.67Q69.53 75.65 68.50 76.77Q67.46 77.90 65.84 77.90L65.84 77.90Q64.31 77.90 63.09 77.05Q61.88 76.19 60.62 74.93L60.62 74.93Z"></path></svg>